<svg width="33" height="33" viewBox="0 0 33 33" fill="none" xmlns="http://www.w3.org/2000/svg">
<g clip-path="url(#clip0_1_3394)">
<path fill-rule="evenodd" clip-rule="evenodd" d="M16.499 10.0757C12.08 10.0757 8.49902 13.6567 8.49902 18.0757C8.49902 22.4937 12.08 26.0757 16.499 26.0757C20.917 26.0757 24.499 22.4937 24.499 18.0757C24.499 13.6577 20.917 10.0757 16.499 10.0757ZM21.054 21.9807C18.898 24.4967 15.111 24.7877 12.595 22.6307C10.078 20.4747 9.78802 16.6867 11.945 14.1717C14.1 11.6547 17.888 11.3647 20.404 13.5217C22.919 15.6767 23.21 19.4657 21.054 21.9807Z" fill="#A4A1AA"/>
<path fill-rule="evenodd" clip-rule="evenodd" d="M16.499 14.0757C14.29 14.0757 12.5 15.8667 12.499 18.0747V18.0767C12.499 18.3517 12.723 18.5767 12.999 18.5767C13.275 18.5767 13.499 18.3517 13.499 18.0767V18.0747C13.5 16.4187 14.842 15.0757 16.499 15.0757C16.775 15.0757 16.999 14.8517 16.999 14.5757C16.999 14.2997 16.775 14.0757 16.499 14.0757Z" fill="#A4A1AA"/>
<path fill-rule="evenodd" clip-rule="evenodd" d="M29.991 9.11671L25.657 8.39371L24.284 4.95971C23.825 3.81471 22.731 3.07471 21.499 3.07471H11.499C10.267 3.07471 9.17302 3.81471 8.71302 4.96071L7.34102 8.39371L3.00802 9.11671C1.55402 9.35771 0.499023 10.6017 0.499023 12.0747V27.0747C0.499023 28.7287 1.84502 30.0747 3.49902 30.0747H29.499C31.153 30.0747 32.499 28.7287 32.499 27.0747V12.0747C32.499 10.6017 31.444 9.35771 29.991 9.11671ZM30.499 27.0747C30.499 27.6277 30.052 28.0747 29.499 28.0747H3.49902C2.94602 28.0747 2.49902 27.6277 2.49902 27.0747V12.0747C2.49902 11.5857 2.85302 11.1687 3.33502 11.0887L8.77902 10.1817L10.57 5.70371C10.723 5.32471 11.09 5.07471 11.499 5.07471H21.499C21.907 5.07471 22.274 5.32371 22.427 5.70371L24.218 10.1817L29.663 11.0887C30.145 11.1687 30.499 11.5857 30.499 12.0747V27.0747Z" fill="#A4A1AA"/>
</g>
<defs>
<clipPath id="clip0_1_3394">
<rect width="32" height="32" fill="white" transform="translate(0.500977 0.074707)"/>
</clipPath>
</defs>
</svg>
