<svg width="20" height="21" viewBox="0 0 20 21" fill="none" xmlns="http://www.w3.org/2000/svg">
<path fill-rule="evenodd" clip-rule="evenodd" d="M10 0.428467C15.5225 0.428467 20 4.90601 20 10.4285C20 15.9509 15.5225 20.4285 10 20.4285C4.47754 20.4285 0 15.9509 0 10.4285C0 4.90601 4.47754 0.428467 10 0.428467ZM8.61328 5.39592H9.83561C10.0586 5.39592 10.2425 5.57983 10.2425 5.80282V10.5131H14.541C14.7656 10.5131 14.9479 10.697 14.9479 10.92V12.1423C14.9479 12.3669 14.764 12.5492 14.541 12.5492H8.20475V5.80282C8.20475 5.57821 8.38867 5.39592 8.61328 5.39592ZM10 2.69897C14.2692 2.69897 17.7295 6.15926 17.7295 10.4285C17.7295 14.6977 14.2692 18.158 10 18.158C5.73079 18.158 2.27051 14.6977 2.27051 10.4285C2.27051 6.16089 5.73079 2.69897 10 2.69897Z" fill="#FF8D72"/>
</svg>
