<svg width="25" height="26" viewBox="0 0 25 26" fill="none" xmlns="http://www.w3.org/2000/svg">
<path d="M21.0938 2.0625H3.90625C3.28465 2.0625 2.68851 2.30943 2.24897 2.74897C1.80943 3.18851 1.5625 3.78465 1.5625 4.40625L1.5625 21.5938C1.5625 22.2154 1.80943 22.8115 2.24897 23.251C2.68851 23.6906 3.28465 23.9375 3.90625 23.9375H10.6079V16.5005H7.53174V13H10.6079V10.332C10.6079 7.29736 12.4146 5.62109 15.1816 5.62109C16.5068 5.62109 17.8926 5.85742 17.8926 5.85742V8.83594H16.3657C14.8613 8.83594 14.3921 9.76953 14.3921 10.7271V13H17.7505L17.2134 16.5005H14.3921V23.9375H21.0938C21.7154 23.9375 22.3115 23.6906 22.751 23.251C23.1906 22.8115 23.4375 22.2154 23.4375 21.5938V4.40625C23.4375 3.78465 23.1906 3.18851 22.751 2.74897C22.3115 2.30943 21.7154 2.0625 21.0938 2.0625Z" fill="#A4A1AA"/>
</svg>
