<svg width="25" height="26" viewBox="0 0 25 26" fill="none" xmlns="http://www.w3.org/2000/svg">
<path d="M12.5046 7.38452C9.39917 7.38452 6.89429 9.8894 6.89429 12.9949C6.89429 16.1003 9.39917 18.6052 12.5046 18.6052C15.6101 18.6052 18.115 16.1003 18.115 12.9949C18.115 9.8894 15.6101 7.38452 12.5046 7.38452ZM12.5046 16.6423C10.4978 16.6423 8.85718 15.0066 8.85718 12.9949C8.85718 10.9832 10.4929 9.34741 12.5046 9.34741C14.5164 9.34741 16.1521 10.9832 16.1521 12.9949C16.1521 15.0066 14.5115 16.6423 12.5046 16.6423ZM19.6531 7.15503C19.6531 7.88257 19.0671 8.46362 18.3445 8.46362C17.6169 8.46362 17.0359 7.87769 17.0359 7.15503C17.0359 6.43237 17.6218 5.84644 18.3445 5.84644C19.0671 5.84644 19.6531 6.43237 19.6531 7.15503ZM23.3689 8.48315C23.2859 6.73022 22.8855 5.17749 21.6013 3.89819C20.322 2.6189 18.7693 2.21851 17.0164 2.13062C15.2097 2.02808 9.79468 2.02808 7.98804 2.13062C6.23999 2.21362 4.68726 2.61401 3.40308 3.89331C2.1189 5.17261 1.72339 6.72534 1.6355 8.47827C1.53296 10.2849 1.53296 15.7 1.6355 17.5066C1.71851 19.2595 2.1189 20.8123 3.40308 22.0916C4.68726 23.3708 6.23511 23.7712 7.98804 23.8591C9.79468 23.9617 15.2097 23.9617 17.0164 23.8591C18.7693 23.7761 20.322 23.3757 21.6013 22.0916C22.8806 20.8123 23.281 19.2595 23.3689 17.5066C23.4714 15.7 23.4714 10.2898 23.3689 8.48315ZM21.0349 19.4451C20.6541 20.4021 19.9167 21.1394 18.9548 21.5251C17.5144 22.0964 14.0964 21.9646 12.5046 21.9646C10.9128 21.9646 7.48999 22.0916 6.05444 21.5251C5.09741 21.1443 4.36011 20.407 3.97437 19.4451C3.40308 18.0046 3.53491 14.5867 3.53491 12.9949C3.53491 11.4031 3.40796 7.98022 3.97437 6.54468C4.35522 5.58765 5.09253 4.85034 6.05444 4.4646C7.49487 3.89331 10.9128 4.02515 12.5046 4.02515C14.0964 4.02515 17.5193 3.89819 18.9548 4.4646C19.9119 4.84546 20.6492 5.58276 21.0349 6.54468C21.6062 7.98511 21.4744 11.4031 21.4744 12.9949C21.4744 14.5867 21.6062 18.0095 21.0349 19.4451Z" fill="#A4A1AA"/>
</svg>
