<svg width="25" height="26" viewBox="0 0 25 26" fill="none" xmlns="http://www.w3.org/2000/svg">
<path d="M21.0938 2.0625H3.90625C2.61182 2.0625 1.5625 3.11182 1.5625 4.40625V21.5938C1.5625 22.8882 2.61182 23.9375 3.90625 23.9375H21.0938C22.3882 23.9375 23.4375 22.8882 23.4375 21.5938V4.40625C23.4375 3.11182 22.3882 2.0625 21.0938 2.0625ZM10.2596 13.298C5.83149 10.0843 5.87661 10.0762 4.6875 9.15073V7.92188C4.6875 7.27466 5.21216 6.75 5.85938 6.75H19.1406C19.7878 6.75 20.3125 7.27466 20.3125 7.92188V9.15073C19.1225 10.077 19.1683 10.0845 14.7404 13.2981C14.2277 13.6719 13.2076 14.5735 12.5 14.5625C11.7918 14.5731 10.7731 13.6725 10.2596 13.298ZM20.3125 11.1335V18.0781C20.3125 18.7253 19.7878 19.25 19.1406 19.25H5.85938C5.21216 19.25 4.6875 18.7253 4.6875 18.0781V11.1335C5.36904 11.6606 6.31489 12.3658 9.34097 14.562C10.0325 15.0669 11.1952 16.1315 12.4999 16.125C13.8127 16.1315 14.9919 15.0487 15.66 14.5612C18.6853 12.3657 19.631 11.6605 20.3125 11.1335Z" fill="#A4A1AA"/>
</svg>
