<svg width="16" height="20" viewBox="0 0 16 20" fill="none" xmlns="http://www.w3.org/2000/svg">
<path d="M13.6423 2.3595C12.8827 1.59292 11.9954 0.99871 11.0035 0.592131C8.01852 -0.626815 4.61852 0.0713425 2.3428 2.36266C0.833228 3.88686 0 5.82739 0 7.83396C0 9.83738 0.832706 11.78 2.3428 13.3026L3.17342 14.1324C4.8404 15.7929 6.27793 17.2266 7.51132 19.2195L7.99111 20L8.47403 19.2195C9.70742 17.2266 11.1449 15.7929 12.8091 14.1342L13.642 13.3C16.7859 10.1305 16.7859 5.52923 13.6423 2.3595ZM10.4738 10.695C9.10338 12.0787 6.88196 12.0787 5.51126 10.695C4.14108 9.31607 4.14108 7.0766 5.51126 5.69502C6.88196 4.31607 9.10338 4.31607 10.4738 5.69502C11.8411 7.0766 11.8411 9.31554 10.4738 10.695Z" fill="#F48A71"/>
</svg>
