<svg width="20" height="20" viewBox="0 0 20 20" fill="none" xmlns="http://www.w3.org/2000/svg">
<path d="M15.525 5.95C17.1655 5.95 18.5 4.6155 18.5 2.975C18.5 1.3345 17.1655 0 15.525 0C13.8845 0 12.55 1.3345 12.55 2.975C12.55 4.6155 13.8845 5.95 15.525 5.95ZM16.8 12.75V7.4715C16.375 7.5905 15.95 7.65 15.525 7.65C15.3805 7.65 15.2445 7.65 15.1 7.65V12.75C15.1 14.161 13.961 15.3 12.55 15.3H5.75C4.339 15.3 3.2 14.161 3.2 12.75V5.95C3.2 4.539 4.339 3.4 5.75 3.4H10.85C10.85 3.264 10.85 3.1195 10.85 2.975C10.85 2.55 10.9095 2.125 11.0285 1.7H5.75C3.404 1.7 1.5 3.604 1.5 5.95V12.75C1.5 15.096 3.404 17 5.75 17H12.55C14.896 17 16.8 15.096 16.8 12.75Z" fill="black"/>
<path d="M18.4988 2.975C18.4988 4.6155 17.1643 5.95 15.5238 5.95C13.8833 5.95 12.5488 4.6155 12.5488 2.975C12.5488 1.3345 13.8833 0 15.5238 0C17.1643 0 18.4988 1.3345 18.4988 2.975Z" fill="#EA3C12"/>
</svg>
